<?xml version="1.0" encoding="iso-8859-1"?>
<!-- Generator: Adobe Illustrator 19.0.0, SVG Export Plug-In . SVG Version: 6.00 Build 0)  -->
<svg version="1.1" id="Capa_1" xmlns="http://www.w3.org/2000/svg" xmlns:xlink="http://www.w3.org/1999/xlink" x="0px" y="0px"
	 viewBox="0 0 60 60" style="enable-background:new 0 0 60 60;" xml:space="preserve">
<g>
	<path d="M52,7.08V5h2c0.553,0,1-0.448,1-1s-0.447-1-1-1h-2V1c0-0.552-0.447-1-1-1s-1,0.448-1,1v2h-2c-0.553,0-1,0.448-1,1
		s0.447,1,1,1h2v2.08c-3.386,0.488-6,3.401-6,6.92v1v17.586L40.414,29H41c0.553,0,1-0.448,1-1s-0.447-1-1-1h-2.059
		c-0.386-3.47-2.753-6.343-5.941-7.475V15h3c0.553,0,1-0.448,1-1v-4c0-0.552-0.447-1-1-1h-3V6c0-0.552-0.447-1-1-1h-4
		c-0.553,0-1,0.448-1,1v3h-3c-0.553,0-1,0.448-1,1v4c0,0.552,0.447,1,1,1h3v4.525c-3.188,1.132-5.555,4.005-5.941,7.475H19
		c-0.553,0-1,0.448-1,1s0.447,1,1,1h0.586L16,32.586V15v-1c0-3.519-2.614-6.432-6-6.92V5h2c0.553,0,1-0.448,1-1s-0.447-1-1-1h-2V1
		c0-0.552-0.447-1-1-1S8,0.448,8,1v2H6C5.447,3,5,3.448,5,4s0.447,1,1,1h2v2.08C4.614,7.568,2,10.481,2,14v1v44c0,0.552,0.447,1,1,1
		h19h16h19c0.553,0,1-0.448,1-1V15v-1C58,10.481,55.386,7.568,52,7.08z M51,9c2.415,0,4.435,1.721,4.899,4h-9.799
		C46.565,10.721,48.585,9,51,9z M29,19v-5c0-0.552-0.447-1-1-1h-3v-2h3c0.553,0,1-0.448,1-1V7h2v3c0,0.552,0.447,1,1,1h3v2h-3
		c-0.553,0-1,0.448-1,1v5H29z M30,21c3.521,0,6.442,2.612,6.929,6H23.071C23.558,23.612,26.479,21,30,21z M9,9
		c2.415,0,4.435,1.721,4.899,4H4.101C4.565,10.721,6.585,9,9,9z M24,58V43c0-3.309,2.691-6,6-6s6,2.691,6,6v15H24z M56,58H38V43
		c0-4.411-3.589-8-8-8s-8,3.589-8,8v15H4V15h10v20c0,0.404,0.243,0.769,0.617,0.924c0.373,0.155,0.804,0.069,1.09-0.217L22.414,29
		h15.172l6.707,6.707c0.287,0.287,0.717,0.373,1.09,0.217C45.757,35.769,46,35.404,46,35V15h10V58z"/>
	<path d="M13,22c0-2.206-1.794-4-4-4s-4,1.794-4,4v10h8V22z M11,30H7v-8c0-1.103,0.897-2,2-2s2,0.897,2,2V30z"/>
	<path d="M16,39c-1.201,0-2.266,0.542-3,1.382C12.266,39.542,11.201,39,10,39c-2.206,0-4,1.794-4,4v10h6h2h6V43
		C20,40.794,18.206,39,16,39z M12,51H8v-8c0-1.103,0.897-2,2-2s2,0.897,2,2V51z M18,51h-4v-8c0-1.103,0.897-2,2-2s2,0.897,2,2V51z"
		/>
	<path d="M44,39c-2.206,0-4,1.794-4,4v10h6h2h6V43c0-2.206-1.794-4-4-4c-1.201,0-2.266,0.542-3,1.382C46.266,39.542,45.201,39,44,39
		z M50,41c1.103,0,2,0.897,2,2v8h-4v-8C48,41.897,48.897,41,50,41z M46,51h-4v-8c0-1.103,0.897-2,2-2s2,0.897,2,2V51z"/>
	<path d="M55,22c0-2.206-1.794-4-4-4s-4,1.794-4,4v10h8V22z M53,30h-4v-8c0-1.103,0.897-2,2-2s2,0.897,2,2V30z"/>
</g>
<g>
</g>
<g>
</g>
<g>
</g>
<g>
</g>
<g>
</g>
<g>
</g>
<g>
</g>
<g>
</g>
<g>
</g>
<g>
</g>
<g>
</g>
<g>
</g>
<g>
</g>
<g>
</g>
<g>
</g>
</svg>
