<?xml version="1.0" encoding="iso-8859-1"?>
<!-- Generator: Adobe Illustrator 19.0.0, SVG Export Plug-In . SVG Version: 6.00 Build 0)  -->
<svg version="1.1" id="Layer_1" xmlns="http://www.w3.org/2000/svg" xmlns:xlink="http://www.w3.org/1999/xlink" x="0px" y="0px"
	 viewBox="0 0 512 512" style="enable-background:new 0 0 512 512;" xml:space="preserve">
<g>
	<g>
		<path d="M501.801,443.275h-25.647V414.36c0-5.632-4.566-10.199-10.199-10.199h-15.104v-18.829c0-5.632-4.566-10.199-10.199-10.199
			h-1.896V182.658h1.896c5.633,0,10.199-4.567,10.199-10.199v-18.83h25.676c5.633,0,10.199-4.567,10.199-10.199V96.685
			c0-5.632-4.566-10.199-10.199-10.199h-20.429L259.981,3.344c-2.545-1.078-5.418-1.078-7.963,0L55.901,86.486H35.472
			c-5.633,0-10.199,4.567-10.199,10.199v46.745c0,5.632,4.566,10.199,10.199,10.199h25.677v18.83
			c0,5.632,4.566,10.199,10.199,10.199h1.896v192.475h-1.896c-5.633,0-10.199,4.567-10.199,10.199v18.829H46.045
			c-5.633,0-10.199,4.567-10.199,10.199v28.915H10.199C4.566,443.276,0,447.843,0,453.475v45.79c0,5.632,4.566,10.199,10.199,10.199
			h491.602c5.633,0,10.199-4.567,10.199-10.199v-45.79C512,447.841,507.434,443.275,501.801,443.275z M256,23.812l147.836,62.673
			h-37.749L259.981,41.503c-2.545-1.078-5.418-1.078-7.963,0L145.913,86.486h-37.749L256,23.812z M313.824,86.486H198.176
			L256,61.971L313.824,86.486z M45.671,133.231v-26.347h420.657v26.347H45.671z M430.452,395.531v8.63h-71.524v-8.63H430.452z
			 M371.024,375.133V182.658h47.335v192.474H371.024z M358.928,162.26v-8.631h71.524v8.631H358.928z M301.961,375.133h-1.896
			V182.658h1.896c5.633,0,10.199-4.567,10.199-10.199v-18.83h26.369v18.83c0,5.632,4.566,10.199,10.199,10.199h1.896v192.475h-1.896
			c-5.633,0-10.199,4.567-10.199,10.199v18.829H312.16v-0.001v-18.829C312.16,379.7,307.594,375.133,301.961,375.133z
			 M291.761,395.531v8.63h-71.524v-8.63H291.761z M232.334,375.133V182.658h47.333v192.474H232.334z M220.239,162.26v-8.631h71.524
			v8.631H220.239z M163.271,375.133h-1.896V182.658h1.896c5.633,0,10.199-4.567,10.199-10.199v-18.83h26.369v18.83
			c0,5.632,4.566,10.199,10.199,10.199h1.896v192.475h-1.896c-5.633,0-10.199,4.567-10.199,10.199v18.829H173.47v-0.001v-18.829
			C173.47,379.7,168.904,375.133,163.271,375.133z M153.072,395.531v8.63H81.548v-8.63H153.072z M93.642,375.134V182.658h47.334
			v192.475H93.642z M81.548,162.26v-8.631h71.524v8.631H81.548z M56.245,424.559h399.511v18.716H56.245V424.559z M491.602,489.065
			H20.398v-25.392h471.203V489.065z"/>
	</g>
</g>
<g>
	<g>
		<path d="M399.809,257.02c-5.633,0-10.199,4.567-10.199,10.199v89.753c0,5.632,4.566,10.199,10.199,10.199
			s10.199-4.567,10.199-10.199v-89.753C410.008,261.587,405.442,257.02,399.809,257.02z"/>
	</g>
</g>
<g>
	<g>
		<path d="M399.809,224.382c-5.633,0-10.199,4.567-10.199,10.199v4.08c0,5.632,4.566,10.199,10.199,10.199
			s10.199-4.567,10.199-10.199v-4.08C410.008,228.95,405.442,224.382,399.809,224.382z"/>
	</g>
</g>
<g>
</g>
<g>
</g>
<g>
</g>
<g>
</g>
<g>
</g>
<g>
</g>
<g>
</g>
<g>
</g>
<g>
</g>
<g>
</g>
<g>
</g>
<g>
</g>
<g>
</g>
<g>
</g>
<g>
</g>
</svg>
